<mxfile host="app.diagrams.net" agent="Mozilla/5.0 (Macintosh; Intel Mac OS X 10_15_7) AppleWebKit/537.36 (KHTML, like Gecko) Chrome/136.0.0.0 Safari/537.36" version="27.0.5">
  <diagram name="第 1 页" id="Ta36O1h0ZpPf87er8gXT">
    <mxGraphModel dx="1234" dy="790" grid="0" gridSize="10" guides="1" tooltips="1" connect="1" arrows="1" fold="1" page="0" pageScale="1" pageWidth="827" pageHeight="1169" math="0" shadow="0">
      <root>
        <mxCell id="0" />
        <mxCell id="1" parent="0" />
        <mxCell id="isFGyiBK4rGAAYViwIA2-1" value="用户" style="shape=umlActor;verticalLabelPosition=bottom;verticalAlign=top;html=1;" parent="1" vertex="1">
          <mxGeometry x="113" y="262" width="30" height="60" as="geometry" />
        </mxCell>
        <mxCell id="isFGyiBK4rGAAYViwIA2-2" value="" style="rounded=0;whiteSpace=wrap;html=1;" parent="1" vertex="1">
          <mxGeometry x="213" y="65" width="394" height="462" as="geometry" />
        </mxCell>
        <mxCell id="isFGyiBK4rGAAYViwIA2-3" value="办公协同功能" style="text;html=1;align=center;verticalAlign=middle;whiteSpace=wrap;rounded=0;" parent="1" vertex="1">
          <mxGeometry x="364" y="65" width="99" height="30" as="geometry" />
        </mxCell>
        <mxCell id="isFGyiBK4rGAAYViwIA2-4" value="同步公司部门信息" style="ellipse;whiteSpace=wrap;html=1;" parent="1" vertex="1">
          <mxGeometry x="429" y="108" width="100" height="50" as="geometry" />
        </mxCell>
        <mxCell id="isFGyiBK4rGAAYViwIA2-5" value="关联企业微信" style="ellipse;whiteSpace=wrap;html=1;" parent="1" vertex="1">
          <mxGeometry x="237" y="212" width="100" height="50" as="geometry" />
        </mxCell>
        <mxCell id="isFGyiBK4rGAAYViwIA2-6" value="关联腾讯会议" style="ellipse;whiteSpace=wrap;html=1;" parent="1" vertex="1">
          <mxGeometry x="240" y="418" width="100" height="50" as="geometry" />
        </mxCell>
        <mxCell id="isFGyiBK4rGAAYViwIA2-7" value="" style="endArrow=none;html=1;rounded=0;exitX=1;exitY=0.3333333333333333;exitDx=0;exitDy=0;exitPerimeter=0;entryX=0;entryY=0.5;entryDx=0;entryDy=0;" parent="1" source="isFGyiBK4rGAAYViwIA2-1" target="isFGyiBK4rGAAYViwIA2-5" edge="1">
          <mxGeometry width="50" height="50" relative="1" as="geometry">
            <mxPoint x="142" y="385" as="sourcePoint" />
            <mxPoint x="224" y="370" as="targetPoint" />
          </mxGeometry>
        </mxCell>
        <mxCell id="isFGyiBK4rGAAYViwIA2-9" value="" style="endArrow=none;html=1;rounded=0;exitX=1;exitY=0.3333333333333333;exitDx=0;exitDy=0;exitPerimeter=0;entryX=0;entryY=0.5;entryDx=0;entryDy=0;" parent="1" source="isFGyiBK4rGAAYViwIA2-1" target="isFGyiBK4rGAAYViwIA2-6" edge="1">
          <mxGeometry width="50" height="50" relative="1" as="geometry">
            <mxPoint x="142" y="385" as="sourcePoint" />
            <mxPoint x="252" y="289" as="targetPoint" />
          </mxGeometry>
        </mxCell>
        <mxCell id="isFGyiBK4rGAAYViwIA2-14" value="通过企业微信登录" style="ellipse;whiteSpace=wrap;html=1;" parent="1" vertex="1">
          <mxGeometry x="429" y="210" width="100" height="50" as="geometry" />
        </mxCell>
        <mxCell id="isFGyiBK4rGAAYViwIA2-15" value="企业微信拉群" style="ellipse;whiteSpace=wrap;html=1;" parent="1" vertex="1">
          <mxGeometry x="439" y="312" width="100" height="50" as="geometry" />
        </mxCell>
        <mxCell id="isFGyiBK4rGAAYViwIA2-17" value="建立腾讯会议" style="ellipse;whiteSpace=wrap;html=1;" parent="1" vertex="1">
          <mxGeometry x="439" y="418" width="100" height="50" as="geometry" />
        </mxCell>
        <mxCell id="isFGyiBK4rGAAYViwIA2-18" value="&amp;lt;&amp;lt;include&amp;gt;&amp;gt;" style="html=1;verticalAlign=bottom;labelBackgroundColor=none;endArrow=open;endFill=0;dashed=1;rounded=0;exitX=1;exitY=0.5;exitDx=0;exitDy=0;entryX=0;entryY=0.5;entryDx=0;entryDy=0;" parent="1" source="isFGyiBK4rGAAYViwIA2-5" target="isFGyiBK4rGAAYViwIA2-4" edge="1">
          <mxGeometry width="160" relative="1" as="geometry">
            <mxPoint x="313" y="366" as="sourcePoint" />
            <mxPoint x="473" y="366" as="targetPoint" />
          </mxGeometry>
        </mxCell>
        <mxCell id="isFGyiBK4rGAAYViwIA2-23" value="&amp;lt;&amp;lt;extend&amp;gt;&amp;gt;" style="html=1;verticalAlign=bottom;labelBackgroundColor=none;endArrow=open;endFill=0;dashed=1;rounded=0;exitX=0;exitY=0.5;exitDx=0;exitDy=0;entryX=1;entryY=0.5;entryDx=0;entryDy=0;" parent="1" source="isFGyiBK4rGAAYViwIA2-14" target="isFGyiBK4rGAAYViwIA2-5" edge="1">
          <mxGeometry width="160" relative="1" as="geometry">
            <mxPoint x="426" y="220" as="sourcePoint" />
            <mxPoint x="352" y="153" as="targetPoint" />
          </mxGeometry>
        </mxCell>
        <mxCell id="isFGyiBK4rGAAYViwIA2-24" value="&amp;lt;&amp;lt;extend&amp;gt;&amp;gt;" style="html=1;verticalAlign=bottom;labelBackgroundColor=none;endArrow=open;endFill=0;dashed=1;rounded=0;entryX=1;entryY=0.5;entryDx=0;entryDy=0;exitX=0;exitY=0.5;exitDx=0;exitDy=0;" parent="1" source="isFGyiBK4rGAAYViwIA2-15" target="isFGyiBK4rGAAYViwIA2-5" edge="1">
          <mxGeometry width="160" relative="1" as="geometry">
            <mxPoint x="426" y="360" as="sourcePoint" />
            <mxPoint x="352" y="312" as="targetPoint" />
          </mxGeometry>
        </mxCell>
        <mxCell id="isFGyiBK4rGAAYViwIA2-25" value="&amp;lt;&amp;lt;extend&amp;gt;&amp;gt;" style="html=1;verticalAlign=bottom;labelBackgroundColor=none;endArrow=open;endFill=0;dashed=1;rounded=0;entryX=1;entryY=0.5;entryDx=0;entryDy=0;exitX=0;exitY=0.5;exitDx=0;exitDy=0;" parent="1" source="isFGyiBK4rGAAYViwIA2-17" target="isFGyiBK4rGAAYViwIA2-6" edge="1">
          <mxGeometry width="160" relative="1" as="geometry">
            <mxPoint x="426" y="441" as="sourcePoint" />
            <mxPoint x="352" y="312" as="targetPoint" />
          </mxGeometry>
        </mxCell>
      </root>
    </mxGraphModel>
  </diagram>
</mxfile>
